<?xml version="1.0" encoding="UTF-8" standalone="no"?>
<!DOCTYPE svg PUBLIC "-//W3C//DTD SVG 1.1//EN"
 "http://www.w3.org/Graphics/SVG/1.1/DTD/svg11.dtd">
<!-- Generated by graphviz version 2.40.1 (20161225.0304)
 -->
<!-- Title: state transitions Pages: 1 -->
<svg width="384pt" height="352pt"
 viewBox="0.00 0.00 384.00 352.00" xmlns="http://www.w3.org/2000/svg" xmlns:xlink="http://www.w3.org/1999/xlink">
<g id="graph0" class="graph" transform="scale(1 1) rotate(0) translate(4 348)">
<title>state transitions</title>
<polygon fill="#ffffff" stroke="transparent" points="-4,4 -4,-348 380,-348 380,4 -4,4"/>
<g id="clust1" class="cluster state regular">
<title>cluster_fsm_state</title>
<path fill="none" stroke="#000000" stroke-width="2" d="M20,-8C20,-8 356,-8 356,-8 362,-8 368,-14 368,-20 368,-20 368,-324 368,-324 368,-330 362,-336 356,-336 356,-336 20,-336 20,-336 14,-336 8,-330 8,-324 8,-324 8,-20 8,-20 8,-14 14,-8 20,-8"/>
<text text-anchor="start" x="161.9942" y="-317.2" font-family="Helvetica,sans-Serif" font-size="12.00" fill="#000000">fsm_state</text>
</g>
<!-- fsm_state -->
<!-- S_awaiting_fr1 -->
<g id="node2" class="node state regular">
<title>S_awaiting_fr1</title>
<polygon fill="#ffffff" fill-opacity="0.003922" stroke="transparent" stroke-width="2" points="221.5,-298 120.5,-298 120.5,-262 221.5,-262 221.5,-298"/>
<text text-anchor="start" x="131.8244" y="-276.2" font-family="Helvetica,sans-Serif" font-size="12.00" fill="#000000">S_awaiting_fr1</text>
<path fill="none" stroke="#000000" stroke-width="2" d="M132.8333,-263C132.8333,-263 209.1667,-263 209.1667,-263 214.8333,-263 220.5,-268.6667 220.5,-274.3333 220.5,-274.3333 220.5,-285.6667 220.5,-285.6667 220.5,-291.3333 214.8333,-297 209.1667,-297 209.1667,-297 132.8333,-297 132.8333,-297 127.1667,-297 121.5,-291.3333 121.5,-285.6667 121.5,-285.6667 121.5,-274.3333 121.5,-274.3333 121.5,-268.6667 127.1667,-263 132.8333,-263"/>
</g>
<!-- S_awaiting_fr1&#45;&gt;S_awaiting_fr1 -->
<g id="edge2" class="edge transition">
<title>S_awaiting_fr1&#45;&gt;S_awaiting_fr1</title>
<path fill="none" stroke="#000000" d="M221.8173,-284.7988C234.2487,-284.4434 243.5,-282.8438 243.5,-280 243.5,-278.0005 238.9263,-276.6161 231.8893,-275.8467"/>
<polygon fill="#000000" stroke="#000000" points="232.0207,-272.348 221.8173,-275.2012 231.5729,-279.3337 232.0207,-272.348"/>
<text text-anchor="start" x="243.5" y="-277" font-family="Helvetica,sans-Serif" font-size="10.00" fill="#000000">not (frame_start=&#39;1&#39;) &#160;&#160;</text>
</g>
<!-- S_getting_fr1 -->
<g id="node3" class="node state regular">
<title>S_getting_fr1</title>
<polygon fill="#ffffff" fill-opacity="0.003922" stroke="transparent" stroke-width="2" points="108.5,-216 15.5,-216 15.5,-180 108.5,-180 108.5,-216"/>
<text text-anchor="start" x="26.8198" y="-194.2" font-family="Helvetica,sans-Serif" font-size="12.00" fill="#000000">S_getting_fr1</text>
<path fill="none" stroke="#000000" stroke-width="2" d="M27.8333,-181C27.8333,-181 96.1667,-181 96.1667,-181 101.8333,-181 107.5,-186.6667 107.5,-192.3333 107.5,-192.3333 107.5,-203.6667 107.5,-203.6667 107.5,-209.3333 101.8333,-215 96.1667,-215 96.1667,-215 27.8333,-215 27.8333,-215 22.1667,-215 16.5,-209.3333 16.5,-203.6667 16.5,-203.6667 16.5,-192.3333 16.5,-192.3333 16.5,-186.6667 22.1667,-181 27.8333,-181"/>
</g>
<!-- S_awaiting_fr1&#45;&gt;S_getting_fr1 -->
<g id="edge1" class="edge transition">
<title>S_awaiting_fr1&#45;&gt;S_getting_fr1</title>
<path fill="none" stroke="#000000" d="M120.3587,-267.8208C98.5189,-261.5476 76.3564,-253.4512 69.287,-245 64.9758,-239.8461 62.6691,-233.2198 61.5282,-226.5779"/>
<polygon fill="#000000" stroke="#000000" points="64.9868,-225.9694 60.5744,-216.3371 58.0169,-226.6187 64.9868,-225.9694"/>
<text text-anchor="start" x="69" y="-236" font-family="Helvetica,sans-Serif" font-size="10.00" fill="#000000">frame_start=&#39;1&#39; &#160;&#160;</text>
</g>
<!-- S_getting_fr1&#45;&gt;S_awaiting_fr1 -->
<g id="edge3" class="edge transition">
<title>S_getting_fr1&#45;&gt;S_awaiting_fr1</title>
<path fill="none" stroke="#000000" d="M108.6661,-211.3708C121.4643,-216.6292 134.6497,-223.6947 145,-233 150.9117,-238.3149 155.7694,-245.302 159.6194,-252.2582"/>
<polygon fill="#000000" stroke="#000000" points="156.6615,-254.1705 164.2493,-261.5649 162.9288,-251.0526 156.6615,-254.1705"/>
<text text-anchor="start" x="154" y="-236" font-family="Helvetica,sans-Serif" font-size="10.00" fill="#000000">frame_error=&#39;1&#39; &#160;&#160;</text>
</g>
<!-- S_getting_fr1&#45;&gt;S_getting_fr1 -->
<g id="edge5" class="edge transition">
<title>S_getting_fr1&#45;&gt;S_getting_fr1</title>
<path fill="none" stroke="#000000" d="M108.7439,-202.8322C121.1236,-202.556 130.5,-200.9453 130.5,-198 130.5,-195.9291 125.8645,-194.518 118.8087,-193.7666"/>
<polygon fill="#000000" stroke="#000000" points="118.9341,-190.268 108.7439,-193.1678 118.5183,-197.2556 118.9341,-190.268"/>
<text text-anchor="start" x="130.5" y="-201" font-family="Helvetica,sans-Serif" font-size="10.00" fill="#000000">not (frame_error=&#39;1&#39;) &#160;&#160;</text>
<text text-anchor="start" x="130.5" y="-189" font-family="Helvetica,sans-Serif" font-size="10.00" fill="#000000">not (frame_stop=&#39;1&#39;) &#160;&#160;</text>
</g>
<!-- S_awaiting_fr2 -->
<g id="node4" class="node state regular">
<title>S_awaiting_fr2</title>
<polygon fill="#ffffff" fill-opacity="0.003922" stroke="transparent" stroke-width="2" points="178.5,-134 77.5,-134 77.5,-98 178.5,-98 178.5,-134"/>
<text text-anchor="start" x="88.8244" y="-112.2" font-family="Helvetica,sans-Serif" font-size="12.00" fill="#000000">S_awaiting_fr2</text>
<path fill="none" stroke="#000000" stroke-width="2" d="M89.8333,-99C89.8333,-99 166.1667,-99 166.1667,-99 171.8333,-99 177.5,-104.6667 177.5,-110.3333 177.5,-110.3333 177.5,-121.6667 177.5,-121.6667 177.5,-127.3333 171.8333,-133 166.1667,-133 166.1667,-133 89.8333,-133 89.8333,-133 84.1667,-133 78.5,-127.3333 78.5,-121.6667 78.5,-121.6667 78.5,-110.3333 78.5,-110.3333 78.5,-104.6667 84.1667,-99 89.8333,-99"/>
</g>
<!-- S_getting_fr1&#45;&gt;S_awaiting_fr2 -->
<g id="edge4" class="edge transition">
<title>S_getting_fr1&#45;&gt;S_awaiting_fr2</title>
<path fill="none" stroke="#000000" d="M76.6475,-179.8015C85.5341,-168.7606 97.0242,-154.4851 106.8818,-142.2378"/>
<polygon fill="#000000" stroke="#000000" points="109.8498,-144.1323 113.3934,-134.1476 104.3967,-139.7432 109.8498,-144.1323"/>
<text text-anchor="start" x="99" y="-154" font-family="Helvetica,sans-Serif" font-size="10.00" fill="#000000">frame_stop=&#39;1&#39; &#160;&#160;</text>
</g>
<!-- S_awaiting_fr2&#45;&gt;S_awaiting_fr1 -->
<g id="edge6" class="edge transition">
<title>S_awaiting_fr2&#45;&gt;S_awaiting_fr1</title>
<path fill="none" stroke="#000000" d="M178.5102,-132.5364C200.5839,-142.5656 224.2985,-157.8131 237,-180 251.3595,-205.0831 250.5872,-220.6608 235,-245 232.473,-248.9459 229.3395,-252.4823 225.8277,-255.6452"/>
<polygon fill="#000000" stroke="#000000" points="223.3953,-253.1016 217.6239,-261.9865 227.6763,-258.64 223.3953,-253.1016"/>
<text text-anchor="start" x="247" y="-195" font-family="Helvetica,sans-Serif" font-size="10.00" fill="#000000">timer_get=&#39;1&#39; &#160;&#160;</text>
</g>
<!-- S_getting_fr2 -->
<g id="node5" class="node state regular">
<title>S_getting_fr2</title>
<polygon fill="#ffffff" fill-opacity="0.003922" stroke="transparent" stroke-width="2" points="233.5,-52 140.5,-52 140.5,-16 233.5,-16 233.5,-52"/>
<text text-anchor="start" x="151.8198" y="-30.2" font-family="Helvetica,sans-Serif" font-size="12.00" fill="#000000">S_getting_fr2</text>
<path fill="none" stroke="#000000" stroke-width="2" d="M152.8333,-17C152.8333,-17 221.1667,-17 221.1667,-17 226.8333,-17 232.5,-22.6667 232.5,-28.3333 232.5,-28.3333 232.5,-39.6667 232.5,-39.6667 232.5,-45.3333 226.8333,-51 221.1667,-51 221.1667,-51 152.8333,-51 152.8333,-51 147.1667,-51 141.5,-45.3333 141.5,-39.6667 141.5,-39.6667 141.5,-28.3333 141.5,-28.3333 141.5,-22.6667 147.1667,-17 152.8333,-17"/>
</g>
<!-- S_awaiting_fr2&#45;&gt;S_getting_fr2 -->
<g id="edge7" class="edge transition">
<title>S_awaiting_fr2&#45;&gt;S_getting_fr2</title>
<path fill="none" stroke="#000000" d="M96.133,-97.8823C85.5251,-89.4886 78.0509,-79.1425 85.287,-69 91.1591,-60.7694 110.2608,-53.2397 130.3501,-47.2905"/>
<polygon fill="#000000" stroke="#000000" points="131.5639,-50.5848 140.2378,-44.5008 129.6631,-43.8478 131.5639,-50.5848"/>
<text text-anchor="start" x="85" y="-72" font-family="Helvetica,sans-Serif" font-size="10.00" fill="#000000">frame_start=&#39;1&#39; &#160;&#160;</text>
</g>
<!-- S_getting_fr2&#45;&gt;S_awaiting_fr1 -->
<g id="edge9" class="edge transition">
<title>S_getting_fr2&#45;&gt;S_awaiting_fr1</title>
<path fill="none" stroke="#000000" d="M233.6011,-44.7318C259.2786,-52.0457 286,-62.6289 286,-75 286,-142.5 286,-142.5 286,-142.5 286,-164.41 310.421,-159.4426 318,-180 323.5346,-195.0123 326.6742,-202.5554 318,-216 299.0048,-245.4416 263.1487,-261.4035 231.6056,-270.0237"/>
<polygon fill="#000000" stroke="#000000" points="230.3773,-266.7242 221.5427,-272.5722 232.0959,-273.5099 230.3773,-266.7242"/>
<text text-anchor="start" x="301" y="-154" font-family="Helvetica,sans-Serif" font-size="10.00" fill="#000000">frame_stop=&#39;1&#39; &#160;&#160;</text>
</g>
<!-- S_getting_fr2&#45;&gt;S_awaiting_fr2 -->
<g id="edge8" class="edge transition">
<title>S_getting_fr2&#45;&gt;S_awaiting_fr2</title>
<path fill="none" stroke="#000000" d="M178.3695,-52.0483C173.7237,-61.0704 167.5984,-71.9624 161,-81 158.6839,-84.1723 156.1051,-87.3602 153.4381,-90.4511"/>
<polygon fill="#000000" stroke="#000000" points="150.84,-88.1059 146.7269,-97.8698 156.0311,-92.802 150.84,-88.1059"/>
<text text-anchor="start" x="168" y="-72" font-family="Helvetica,sans-Serif" font-size="10.00" fill="#000000">frame_error=&#39;1&#39; &#160;&#160;</text>
</g>
<!-- S_getting_fr2&#45;&gt;S_getting_fr2 -->
<g id="edge10" class="edge transition">
<title>S_getting_fr2&#45;&gt;S_getting_fr2</title>
<path fill="none" stroke="#000000" d="M233.7439,-38.8322C246.1236,-38.556 255.5,-36.9453 255.5,-34 255.5,-31.9291 250.8645,-30.518 243.8087,-29.7666"/>
<polygon fill="#000000" stroke="#000000" points="243.9341,-26.268 233.7439,-29.1678 243.5183,-33.2556 243.9341,-26.268"/>
<text text-anchor="start" x="255.5" y="-37" font-family="Helvetica,sans-Serif" font-size="10.00" fill="#000000">not (frame_error=&#39;1&#39;) &#160;&#160;</text>
<text text-anchor="start" x="255.5" y="-25" font-family="Helvetica,sans-Serif" font-size="10.00" fill="#000000">not (frame_stop=&#39;1&#39;) &#160;&#160;</text>
</g>
</g>
</svg>
