<?xml version="1.0" encoding="UTF-8" standalone="no"?>
<!DOCTYPE svg PUBLIC "-//W3C//DTD SVG 1.1//EN"
 "http://www.w3.org/Graphics/SVG/1.1/DTD/svg11.dtd">
<!-- Generated by graphviz version 2.40.1 (20161225.0304)
 -->
<!-- Title: state transitions Pages: 1 -->
<svg width="408pt" height="352pt"
 viewBox="0.00 0.00 408.00 352.00" xmlns="http://www.w3.org/2000/svg" xmlns:xlink="http://www.w3.org/1999/xlink">
<g id="graph0" class="graph" transform="scale(1 1) rotate(0) translate(4 348)">
<title>state transitions</title>
<polygon fill="#ffffff" stroke="transparent" points="-4,4 -4,-348 404,-348 404,4 -4,4"/>
<g id="clust1" class="cluster state regular">
<title>cluster_fsm_state</title>
<path fill="none" stroke="#000000" stroke-width="2" d="M20,-8C20,-8 380,-8 380,-8 386,-8 392,-14 392,-20 392,-20 392,-324 392,-324 392,-330 386,-336 380,-336 380,-336 20,-336 20,-336 14,-336 8,-330 8,-324 8,-324 8,-20 8,-20 8,-14 14,-8 20,-8"/>
<text text-anchor="start" x="173.9942" y="-317.2" font-family="Helvetica,sans-Serif" font-size="12.00" fill="#000000">fsm_state</text>
</g>
<!-- fsm_state -->
<!-- S_awaiting_fr1 -->
<g id="node2" class="node state regular">
<title>S_awaiting_fr1</title>
<polygon fill="#ffffff" fill-opacity="0.003922" stroke="transparent" stroke-width="2" points="245.5,-298 144.5,-298 144.5,-262 245.5,-262 245.5,-298"/>
<text text-anchor="start" x="155.8244" y="-276.2" font-family="Helvetica,sans-Serif" font-size="12.00" fill="#000000">S_awaiting_fr1</text>
<path fill="none" stroke="#000000" stroke-width="2" d="M156.8333,-263C156.8333,-263 233.1667,-263 233.1667,-263 238.8333,-263 244.5,-268.6667 244.5,-274.3333 244.5,-274.3333 244.5,-285.6667 244.5,-285.6667 244.5,-291.3333 238.8333,-297 233.1667,-297 233.1667,-297 156.8333,-297 156.8333,-297 151.1667,-297 145.5,-291.3333 145.5,-285.6667 145.5,-285.6667 145.5,-274.3333 145.5,-274.3333 145.5,-268.6667 151.1667,-263 156.8333,-263"/>
</g>
<!-- S_awaiting_fr1&#45;&gt;S_awaiting_fr1 -->
<g id="edge2" class="edge transition">
<title>S_awaiting_fr1&#45;&gt;S_awaiting_fr1</title>
<path fill="none" stroke="#000000" d="M245.8173,-284.7988C258.2487,-284.4434 267.5,-282.8438 267.5,-280 267.5,-278.0005 262.9263,-276.6161 255.8893,-275.8467"/>
<polygon fill="#000000" stroke="#000000" points="256.0207,-272.348 245.8173,-275.2012 255.5729,-279.3337 256.0207,-272.348"/>
<text text-anchor="start" x="267.5" y="-277" font-family="Helvetica,sans-Serif" font-size="10.00" fill="#000000">not (frame_start=&#39;1&#39;) &#160;&#160;</text>
</g>
<!-- S_getting_fr1 -->
<g id="node3" class="node state regular">
<title>S_getting_fr1</title>
<polygon fill="#ffffff" fill-opacity="0.003922" stroke="transparent" stroke-width="2" points="108.5,-216 15.5,-216 15.5,-180 108.5,-180 108.5,-216"/>
<text text-anchor="start" x="26.8198" y="-194.2" font-family="Helvetica,sans-Serif" font-size="12.00" fill="#000000">S_getting_fr1</text>
<path fill="none" stroke="#000000" stroke-width="2" d="M27.8333,-181C27.8333,-181 96.1667,-181 96.1667,-181 101.8333,-181 107.5,-186.6667 107.5,-192.3333 107.5,-192.3333 107.5,-203.6667 107.5,-203.6667 107.5,-209.3333 101.8333,-215 96.1667,-215 96.1667,-215 27.8333,-215 27.8333,-215 22.1667,-215 16.5,-209.3333 16.5,-203.6667 16.5,-203.6667 16.5,-192.3333 16.5,-192.3333 16.5,-186.6667 22.1667,-181 27.8333,-181"/>
</g>
<!-- S_awaiting_fr1&#45;&gt;S_getting_fr1 -->
<g id="edge1" class="edge transition">
<title>S_awaiting_fr1&#45;&gt;S_getting_fr1</title>
<path fill="none" stroke="#000000" d="M144.4389,-271.6622C114.1048,-265.6062 79.4831,-256.473 69.287,-245 64.7515,-239.8965 62.3856,-233.1864 61.2611,-226.44"/>
<polygon fill="#000000" stroke="#000000" points="64.7115,-225.7043 60.3822,-216.0344 57.7363,-226.2935 64.7115,-225.7043"/>
<text text-anchor="start" x="69" y="-236" font-family="Helvetica,sans-Serif" font-size="10.00" fill="#000000">frame_start=&#39;1&#39; &#160;&#160;</text>
</g>
<!-- S_getting_fr1&#45;&gt;S_awaiting_fr1 -->
<g id="edge3" class="edge transition">
<title>S_getting_fr1&#45;&gt;S_awaiting_fr1</title>
<path fill="none" stroke="#000000" d="M108.7109,-214.2838C120.9642,-219.4575 133.8577,-225.7512 145,-233 154.2872,-239.0419 163.4254,-246.8968 171.2971,-254.4499"/>
<polygon fill="#000000" stroke="#000000" points="169.1488,-257.2499 178.7053,-261.8243 174.0872,-252.2888 169.1488,-257.2499"/>
<text text-anchor="start" x="160" y="-236" font-family="Helvetica,sans-Serif" font-size="10.00" fill="#000000">frame_error=&#39;1&#39; &#160;&#160;</text>
</g>
<!-- S_getting_fr1&#45;&gt;S_getting_fr1 -->
<g id="edge5" class="edge transition">
<title>S_getting_fr1&#45;&gt;S_getting_fr1</title>
<path fill="none" stroke="#000000" d="M108.7439,-202.8322C121.1236,-202.556 130.5,-200.9453 130.5,-198 130.5,-195.9291 125.8645,-194.518 118.8087,-193.7666"/>
<polygon fill="#000000" stroke="#000000" points="118.9341,-190.268 108.7439,-193.1678 118.5183,-197.2556 118.9341,-190.268"/>
<text text-anchor="start" x="130.5" y="-201" font-family="Helvetica,sans-Serif" font-size="10.00" fill="#000000">not (frame_error=&#39;1&#39;) &#160;&#160;</text>
<text text-anchor="start" x="130.5" y="-189" font-family="Helvetica,sans-Serif" font-size="10.00" fill="#000000">not (frame_stop=&#39;1&#39;) &#160;&#160;</text>
</g>
<!-- S_awaiting_fr2 -->
<g id="node4" class="node state regular">
<title>S_awaiting_fr2</title>
<polygon fill="#ffffff" fill-opacity="0.003922" stroke="transparent" stroke-width="2" points="142.5,-134 41.5,-134 41.5,-98 142.5,-98 142.5,-134"/>
<text text-anchor="start" x="52.8244" y="-112.2" font-family="Helvetica,sans-Serif" font-size="12.00" fill="#000000">S_awaiting_fr2</text>
<path fill="none" stroke="#000000" stroke-width="2" d="M53.8333,-99C53.8333,-99 130.1667,-99 130.1667,-99 135.8333,-99 141.5,-104.6667 141.5,-110.3333 141.5,-110.3333 141.5,-121.6667 141.5,-121.6667 141.5,-127.3333 135.8333,-133 130.1667,-133 130.1667,-133 53.8333,-133 53.8333,-133 48.1667,-133 42.5,-127.3333 42.5,-121.6667 42.5,-121.6667 42.5,-110.3333 42.5,-110.3333 42.5,-104.6667 48.1667,-99 53.8333,-99"/>
</g>
<!-- S_getting_fr1&#45;&gt;S_awaiting_fr2 -->
<g id="edge4" class="edge transition">
<title>S_getting_fr1&#45;&gt;S_awaiting_fr2</title>
<path fill="none" stroke="#000000" d="M60.6205,-179.6213C60.5686,-170.7182 61.4367,-160.0272 64.836,-151 65.8779,-148.2332 67.2193,-145.5081 68.7468,-142.8747"/>
<polygon fill="#000000" stroke="#000000" points="71.8074,-144.5959 74.4921,-134.3469 66.002,-140.6847 71.8074,-144.5959"/>
<text text-anchor="start" x="64" y="-154" font-family="Helvetica,sans-Serif" font-size="10.00" fill="#000000">frame_stop=&#39;1&#39; &#160;&#160;</text>
</g>
<!-- S_awaiting_fr2&#45;&gt;S_awaiting_fr1 -->
<g id="edge6" class="edge transition">
<title>S_awaiting_fr2&#45;&gt;S_awaiting_fr1</title>
<path fill="none" stroke="#000000" d="M117.3737,-134.1884C133.7269,-145.635 153.6264,-158.9784 163,-163 194.012,-176.305 214.9995,-154.4121 237,-180 264.6509,-212.1596 248.5376,-229.7936 241,-245 239.2953,-248.4391 237.0731,-251.6318 234.5261,-254.575"/>
<polygon fill="#000000" stroke="#000000" points="231.86,-252.2869 227.1577,-261.7811 236.7543,-257.2915 231.86,-252.2869"/>
<text text-anchor="start" x="252" y="-195" font-family="Helvetica,sans-Serif" font-size="10.00" fill="#000000">timer_get=&#39;1&#39; &#160;&#160;</text>
</g>
<!-- S_getting_fr2 -->
<g id="node5" class="node state regular">
<title>S_getting_fr2</title>
<polygon fill="#ffffff" fill-opacity="0.003922" stroke="transparent" stroke-width="2" points="236.5,-52 143.5,-52 143.5,-16 236.5,-16 236.5,-52"/>
<text text-anchor="start" x="154.8198" y="-30.2" font-family="Helvetica,sans-Serif" font-size="12.00" fill="#000000">S_getting_fr2</text>
<path fill="none" stroke="#000000" stroke-width="2" d="M155.8333,-17C155.8333,-17 224.1667,-17 224.1667,-17 229.8333,-17 235.5,-22.6667 235.5,-28.3333 235.5,-28.3333 235.5,-39.6667 235.5,-39.6667 235.5,-45.3333 229.8333,-51 224.1667,-51 224.1667,-51 155.8333,-51 155.8333,-51 150.1667,-51 144.5,-45.3333 144.5,-39.6667 144.5,-39.6667 144.5,-28.3333 144.5,-28.3333 144.5,-22.6667 150.1667,-17 155.8333,-17"/>
</g>
<!-- S_awaiting_fr2&#45;&gt;S_getting_fr2 -->
<g id="edge7" class="edge transition">
<title>S_awaiting_fr2&#45;&gt;S_getting_fr2</title>
<path fill="none" stroke="#000000" d="M95.1431,-97.649C97.5958,-88.1082 101.883,-76.8362 109.287,-69 116.21,-61.6728 124.9281,-55.7974 134.0556,-51.1121"/>
<polygon fill="#000000" stroke="#000000" points="135.6858,-54.2138 143.2681,-46.8139 132.7261,-47.8702 135.6858,-54.2138"/>
<text text-anchor="start" x="109" y="-72" font-family="Helvetica,sans-Serif" font-size="10.00" fill="#000000">frame_start=&#39;1&#39; &#160;&#160;</text>
</g>
<!-- S_getting_fr2&#45;&gt;S_awaiting_fr1 -->
<g id="edge8" class="edge transition">
<title>S_getting_fr2&#45;&gt;S_awaiting_fr1</title>
<path fill="none" stroke="#000000" d="M190,-52.3688C190,-59.4426 190,-67.5972 190,-75 190,-142.5 190,-142.5 190,-142.5 190,-154.2315 196.4308,-157.1996 206.628,-163 252.0617,-188.844 288.8151,-140.4585 323,-180 351.0381,-212.4316 300.6346,-241.6102 255.067,-259.9619"/>
<polygon fill="#000000" stroke="#000000" points="253.7895,-256.7033 245.7451,-263.5982 256.3334,-263.2247 253.7895,-256.7033"/>
<text text-anchor="start" x="206" y="-154" font-family="Helvetica,sans-Serif" font-size="10.00" fill="#000000">frame_error=&#39;1&#39; &#160;&#160;</text>
</g>
<!-- S_getting_fr2&#45;&gt;S_awaiting_fr1 -->
<g id="edge9" class="edge transition">
<title>S_getting_fr2&#45;&gt;S_awaiting_fr1</title>
<path fill="none" stroke="#000000" d="M236.7387,-41.1684C270.4327,-47.7015 310,-58.8184 310,-75 310,-142.5 310,-142.5 310,-142.5 310,-162.0518 327.6892,-161.1833 333,-180 337.346,-195.3984 339.248,-201.2703 333,-216 320.0185,-246.604 286.4382,-262.5852 255.6548,-270.9247"/>
<polygon fill="#000000" stroke="#000000" points="254.651,-267.5675 245.7881,-273.3726 256.3367,-274.3615 254.651,-267.5675"/>
<text text-anchor="start" x="321" y="-154" font-family="Helvetica,sans-Serif" font-size="10.00" fill="#000000">frame_stop=&#39;1&#39; &#160;&#160;</text>
</g>
<!-- S_getting_fr2&#45;&gt;S_getting_fr2 -->
<g id="edge10" class="edge transition">
<title>S_getting_fr2&#45;&gt;S_getting_fr2</title>
<path fill="none" stroke="#000000" d="M236.7439,-38.8322C249.1236,-38.556 258.5,-36.9453 258.5,-34 258.5,-31.9291 253.8645,-30.518 246.8087,-29.7666"/>
<polygon fill="#000000" stroke="#000000" points="246.9341,-26.268 236.7439,-29.1678 246.5183,-33.2556 246.9341,-26.268"/>
<text text-anchor="start" x="258.5" y="-37" font-family="Helvetica,sans-Serif" font-size="10.00" fill="#000000">not (frame_error=&#39;1&#39;) &#160;&#160;</text>
<text text-anchor="start" x="258.5" y="-25" font-family="Helvetica,sans-Serif" font-size="10.00" fill="#000000">not (frame_stop=&#39;1&#39;) &#160;&#160;</text>
</g>
</g>
</svg>
